<svg aria-hidden="true" style="position: absolute; width: 0; height: 0; overflow: hidden;" version="1.1" xmlns="http://www.w3.org/2000/svg" xmlns:xlink="http://www.w3.org/1999/xlink">
<defs>
<symbol id="alarm" viewBox="0 0 32 32">
<title>alarm</title>
<path d="M30.74 10.003c-1.623-3.716-4.527-6.62-8.142-8.204l-0.101-0.039c1-0.787 2.258-1.26 3.629-1.26 3.244 0 5.874 2.63 5.874 5.874v0c0 0.001 0 0.002 0 0.003 0 1.375-0.475 2.639-1.269 3.637l0.009-0.012zM30.5 16.5c0 3.852-1.512 7.343-3.963 9.94l2.029 2.028c0.258 0.267 0.417 0.63 0.417 1.031 0 0.819-0.664 1.483-1.483 1.483-0.401 0-0.765-0.159-1.032-0.418l-2.18-2.178c-2.306 1.635-5.178 2.613-8.278 2.613-0.004 0-0.008 0-0.012 0h0.001c-0.004 0-0.008 0-0.012 0-3.094 0-5.961-0.974-8.309-2.633l0.045 0.030-2.163 2.163c-0.274 0.289-0.661 0.47-1.090 0.47-0.828 0-1.5-0.672-1.5-1.5 0-0.429 0.18-0.816 0.468-1.089l0.001-0.001 2.011-2.012c-2.443-2.596-3.951-6.083-3.951-9.928 0-8.008 6.492-14.5 14.5-14.5s14.5 6.492 14.5 14.5zM16 5c-6.351 0-11.5 5.148-11.5 11.5 0 6.351 5.149 11.5 11.5 11.5s11.5-5.15 11.5-11.5c0-6.352-5.15-11.5-11.5-11.5zM22 18h-6c-0.828 0-1.5-0.672-1.5-1.5v0-8c0-0.828 0.672-1.5 1.5-1.5s1.5 0.672 1.5 1.5v0 6.5h4.5c0.828 0 1.5 0.672 1.5 1.5s-0.672 1.5-1.5 1.5v0zM1.287 10.205c-0.802-1.007-1.287-2.298-1.287-3.702 0-0.001 0-0.002 0-0.003v0c0-3.314 2.686-6 6-6v0c1.4 0 2.685 0.483 3.706 1.287-3.795 1.658-6.761 4.624-8.379 8.315l-0.040 0.103z"></path>
</symbol>
<symbol id="book" viewBox="0 0 32 32">
<title>book</title>
<path  d="M31.065 25.89l-14.471 5.987c-0.175 0.078-0.379 0.123-0.594 0.123s-0.419-0.045-0.604-0.127l0.010 0.004-14.47-5.987c-0.554-0.229-0.936-0.765-0.936-1.39 0-0 0-0 0-0v0-23c0.001-0.828 0.672-1.499 1.5-1.499 0.207 0 0.404 0.042 0.583 0.117l-0.010-0.004 0.003 0.001 0.013 0.005 13.911 5.755 13.928-5.762c0.169-0.072 0.366-0.113 0.572-0.113 0.828 0 1.5 0.671 1.5 1.499v23c0 0 0 0 0 0 0 0.625-0.382 1.16-0.925 1.386l-0.010 0.004zM14.5 8.502l-11.5-4.759v19.754l11.5 4.759zM29 3.743l-11.5 4.76v19.753l11.5-4.76zM19.88 10.634l5.5-2.5c0.177-0.080 0.385-0.126 0.603-0.126 0.828 0 1.5 0.672 1.5 1.5 0 0.597-0.348 1.112-0.852 1.353l-0.009 0.004-5.5 2.5c-0.177 0.080-0.385 0.126-0.603 0.126-0.828 0-1.5-0.672-1.5-1.5 0-0.597 0.348-1.112 0.852-1.353l0.009-0.004zM19.88 16.134l5.5-2.5c0.182-0.085 0.396-0.135 0.621-0.135 0.828 0 1.499 0.671 1.499 1.499 0 0 0 0 0 0.001v-0c0 0 0 0 0 0 0 0.604-0.357 1.124-0.871 1.362l-0.009 0.004-5.5 2.5c-0.172 0.074-0.372 0.118-0.582 0.118-0.828 0-1.5-0.672-1.5-1.5 0-0.589 0.339-1.098 0.833-1.344l0.009-0.004zM19.88 21.634l5.5-2.5c0.177-0.080 0.385-0.126 0.603-0.126 0.828 0 1.5 0.672 1.5 1.5 0 0.597-0.348 1.112-0.852 1.353l-0.009 0.004-5.5 2.5c-0.177 0.080-0.385 0.126-0.603 0.126-0.828 0-1.5-0.672-1.5-1.5 0-0.597 0.348-1.112 0.852-1.353l0.009-0.004zM6 8c0.221 0 0.431 0.048 0.62 0.134l5.5 2.5c0.508 0.248 0.851 0.76 0.851 1.352 0 0.828-0.672 1.5-1.5 1.5-0.214 0-0.417-0.045-0.601-0.125l0.010 0.004-5.5-2.5c-0.522-0.242-0.878-0.762-0.878-1.365 0-0.828 0.67-1.499 1.498-1.5h0zM6 13.5c0.221 0 0.431 0.048 0.62 0.134l5.5 2.5c0.547 0.232 0.924 0.764 0.924 1.385 0 0.828-0.672 1.5-1.5 1.5-0.242 0-0.471-0.057-0.673-0.159l0.009 0.004v0.001l-5.5-2.5c-0.522-0.242-0.878-0.762-0.878-1.365 0-0.828 0.67-1.499 1.498-1.5h0zM6 19c0.221 0 0.431 0.048 0.62 0.134l5.5 2.5c0.508 0.248 0.851 0.76 0.851 1.352 0 0.828-0.672 1.5-1.5 1.5-0.214 0-0.417-0.045-0.601-0.125l0.010 0.004-5.5-2.5c-0.522-0.242-0.878-0.762-0.878-1.365 0-0.828 0.67-1.499 1.498-1.5h0z"></path>
</symbol>
<symbol id="computer" viewBox="0 0 32 32">
<title>computer</title>
<path d="M30 25h-9.5v2.5l2 2v0.5h-13v-0.5l2-2v-2.5h-9.5c-0.828 0-1.5-0.672-1.5-1.5v0-20c0-0.828 0.672-1.5 1.5-1.5v0h28c0.828 0 1.5 0.672 1.5 1.5v0 20c0 0.828-0.672 1.5-1.5 1.5v0zM29.5 4h-27v17h27zM13 11c0.414 0 0.79 0.168 1.060 0.439l0.94 0.94 2.94-2.94c0.274-0.289 0.661-0.469 1.090-0.469 0.828 0 1.5 0.672 1.5 1.5 0 0.429-0.18 0.816-0.469 1.089l-0.001 0.001-4 4c-0.271 0.273-0.646 0.441-1.061 0.441s-0.79-0.169-1.061-0.441l-2-2c-0.271-0.271-0.439-0.646-0.439-1.060 0-0.828 0.672-1.5 1.5-1.5 0 0 0 0 0.001 0h-0z"></path>
</symbol>
<symbol id="home" viewBox="0 0 32 32">
<title>home</title>
<path  d="M32 17c0 0.828-0.672 1.5-1.5 1.5v0c-0.395-0.001-0.754-0.155-1.021-0.407l0.001 0.001-0.003 0.004-13.477-13.476-13.446 13.446c-0.271 0.27-0.645 0.436-1.058 0.436-0.828 0-1.5-0.672-1.5-1.5 0-0.427 0.178-0.812 0.465-1.086l0.001-0.001 14.456-14.458c0.273-0.283 0.656-0.46 1.080-0.46h0.002c0.027 0 0.053 0 0.080 0.002h0.012c0.032 0.002 0.057 0.005 0.081 0.008l-0.009-0.001c0.367 0.040 0.694 0.212 0.933 0.468l5.903 5.9v-1.377c0-0.828 0.672-1.5 1.5-1.5s1.5 0.672 1.5 1.5v0 4.378l5.598 5.598-0.004 0.004c0.25 0.268 0.406 0.625 0.406 1.020zM29 19.5v10.5c0 0.828-0.672 1.5-1.5 1.5v0h-3v-12h-6v12h-14c-0.828 0-1.5-0.672-1.5-1.5v0-10.5l13-13zM13.5 19.5h-6v6h6z"></path>
</symbol>
<symbol id="image" viewBox="0 0 32 32">
<title>image</title>
<path  d="M30.5 32h-29c-0.828 0-1.5-0.672-1.5-1.5v0-29c0-0.828 0.672-1.5 1.5-1.5v0h29c0.828 0 1.5 0.672 1.5 1.5v0 29c0 0.828-0.672 1.5-1.5 1.5v0zM29 3h-26v26h26zM12 4.5c0.828 0 1.5 0.672 1.5 1.5s-0.672 1.5-1.5 1.5v0h-4.5v4.5c0 0.828-0.672 1.5-1.5 1.5s-1.5-0.672-1.5-1.5v0-7.5zM4.5 20c0-0.828 0.672-1.5 1.5-1.5s1.5 0.672 1.5 1.5v0 4.5h4.5c0.828 0 1.5 0.672 1.5 1.5s-0.672 1.5-1.5 1.5v0h-7.5zM20 4.5h7.5v7.5c0 0.828-0.672 1.5-1.5 1.5s-1.5-0.672-1.5-1.5v0-4.5h-4.5c-0.828 0-1.5-0.672-1.5-1.5s0.672-1.5 1.5-1.5v0zM20 24.5h4.5v-4.5c0-0.828 0.672-1.5 1.5-1.5s1.5 0.672 1.5 1.5v0 7.5h-7.5c-0.828 0-1.5-0.672-1.5-1.5s0.672-1.5 1.5-1.5v0z"></path>
</symbol>
<symbol id="line-graph" viewBox="0 0 32 32">
<title>line-graph</title>
<path d="M30.5 32h-29c-0.828 0-1.5-0.672-1.5-1.5v0-29c0-0.828 0.672-1.5 1.5-1.5v0h29c0.828 0 1.5 0.672 1.5 1.5v0 29c0 0.828-0.672 1.5-1.5 1.5v0zM29 3h-26v26h26zM5.215 16.238l4-2.5c0.223-0.14 0.494-0.223 0.785-0.223 0.314 0 0.605 0.097 0.845 0.263l-0.005-0.003 0.006-0.008 6.63 4.42 7.639-5.391c0.24-0.17 0.538-0.271 0.86-0.271 0.828 0 1.5 0.672 1.5 1.5 0 0.488-0.233 0.921-0.593 1.195l-0.004 0.003-8.5 6c-0.243 0.179-0.548 0.286-0.878 0.286-0.323 0-0.622-0.103-0.866-0.277l0.005 0.003-6.657-4.438-3.135 1.96c-0.221 0.135-0.488 0.215-0.774 0.215-0.828 0-1.5-0.672-1.5-1.5 0-0.508 0.252-0.957 0.639-1.228l0.005-0.003z"></path>
</symbol>
</defs>
</svg>
