<svg aria-hidden="true" style="position: absolute; width: 0; height: 0; overflow: hidden;" version="1.1" xmlns="http://www.w3.org/2000/svg" xmlns:xlink="http://www.w3.org/1999/xlink">
<defs>
<symbol id="loupe" viewBox="0 0 32 32">
<title>loupe</title>
<path  d="M31.644 28.711c-0 1.62-1.314 2.933-2.933 2.933-0.81 0-1.544-0.329-2.075-0.86l-8.597-8.596c-1.701 1.026-3.755 1.633-5.95 1.634h-0c-6.48 0-11.733-5.253-11.733-11.733s5.253-11.733 11.733-11.733c6.48 0 11.733 5.253 11.733 11.733v0c-0 2.196-0.608 4.249-1.663 6.003l0.029-0.053 8.597 8.597c0.53 0.53 0.859 1.262 0.859 2.075zM12.089 3.289c-4.86 0-8.8 3.94-8.8 8.8s3.94 8.8 8.8 8.8v0c4.86 0 8.8-3.94 8.8-8.8s-3.94-8.8-8.8-8.8v0z"></path>
</symbol>
<symbol id="shoping-cart" viewBox="0 0 38 32">
<title>shoping-cart</title>
<path  d="M37.815 7.814h0.002l-5.28 11.733c-0.266 0.582-0.824 0.989-1.481 1.034l-0.005 0-15.206 1.013 0.879 2.509h16.557c1.944 0 3.52 1.576 3.52 3.52s-1.576 3.52-3.52 3.52c-1.944 0-3.52-1.576-3.52-3.52v0h-16.427c0 0.001 0 0.001 0 0.002 0 1.944-1.576 3.52-3.52 3.52s-3.52-1.576-3.52-3.52c0-1.944 1.576-3.52 3.52-3.52h3.179l-6.771-19.36h-4.032c-0.972 0-1.76-0.788-1.76-1.76s0.788-1.76 1.76-1.76v0h5.278c0.768 0 1.414 0.495 1.655 1.18h0.006l1.024 2.927h26.061c0.971 0.002 1.757 0.789 1.757 1.76 0 0.261-0.057 0.509-0.159 0.732l0.005-0.011zM11.383 8.853l3.255 9.295 15.123-1.009 3.729-8.286z"></path>
</symbol>
</defs>
</svg>
