<svg xmlns="http://www.w3.org/2000/svg" xmlns:xlink="http://www.w3.org/1999/xlink"><symbol id="icon-alarm" viewBox="0 0 32 31">
    <path d="M30.74 9.503a15.719 15.719 0 0 0-8.243-8.243c1-.787 2.258-1.26 3.629-1.26A5.874 5.874 0 0 1 32 5.874a5.846 5.846 0 0 1-1.26 3.629zM30.5 16c0 3.852-1.512 7.343-3.963 9.94l2.029 2.028a1.483 1.483 0 0 1-2.097 2.097l-2.18-2.178A14.419 14.419 0 0 1 16 30.5a14.42 14.42 0 0 1-8.276-2.603L5.561 30.06A1.5 1.5 0 1 1 3.44 27.94l2.011-2.012C3.008 23.332 1.5 19.845 1.5 16 1.5 7.992 7.992 1.5 16 1.5S30.5 7.992 30.5 16zM16 4.5C9.649 4.5 4.5 9.648 4.5 16c0 6.351 5.149 11.5 11.5 11.5S27.5 22.35 27.5 16C27.5 9.648 22.35 4.5 16 4.5zm6 13h-6a1.5 1.5 0 0 1-1.5-1.5V8a1.5 1.5 0 0 1 3 0v6.5H22a1.5 1.5 0 0 1 0 3zM1.287 9.705A5.967 5.967 0 0 1 0 6a6 6 0 0 1 6-6c1.4 0 2.685.483 3.706 1.287a16.056 16.056 0 0 0-8.419 8.418z"/>
</symbol><symbol id="icon-book" viewBox="0 0 32 32">
    <path d="M31.065 25.89l-14.471 5.987a1.496 1.496 0 0 1-1.188 0L.936 25.89A1.5 1.5 0 0 1 0 24.5v-23A1.5 1.5 0 0 1 2.073.115l.003.001.013.005L16 5.876 29.912.12l.013-.005.003-.001A1.5 1.5 0 0 1 32 1.5v23a1.5 1.5 0 0 1-.935 1.39zM14.5 8.502L3 3.743v19.754l11.5 4.759zM29 3.743l-11.5 4.76v19.753l11.5-4.76zm-9.12 6.891l5.5-2.5a1.5 1.5 0 0 1 1.241 2.731l-5.5 2.5a1.5 1.5 0 0 1-1.241-2.731zm0 5.5l5.5-2.5a1.499 1.499 0 0 1 2.12 1.365 1.5 1.5 0 0 1-.88 1.366l-5.5 2.5a1.5 1.5 0 0 1-1.241-2.73zm0 5.5l5.5-2.5a1.5 1.5 0 0 1 1.241 2.731l-5.5 2.5a1.5 1.5 0 0 1-1.241-2.731zM6 8c.221 0 .431.048.62.134l5.5 2.5a1.5 1.5 0 0 1-1.24 2.731l-5.5-2.5A1.5 1.5 0 0 1 6 8zm0 5.5c.221 0 .431.048.62.134l5.5 2.5a1.5 1.5 0 1 1-1.24 2.73v.001l-5.5-2.5A1.5 1.5 0 0 1 6 13.5zM6 19c.221 0 .431.048.62.134l5.5 2.5a1.5 1.5 0 0 1-1.24 2.731l-5.5-2.5A1.5 1.5 0 0 1 6 19z"/>
</symbol><symbol id="icon-computer" viewBox="0 0 32 28">
    <path d="M30 23h-9.5v2.5l2 2v.5h-13v-.5l2-2V23H2a1.5 1.5 0 0 1-1.5-1.5v-20A1.5 1.5 0 0 1 2 0h28a1.5 1.5 0 0 1 1.5 1.5v20A1.5 1.5 0 0 1 30 23zm-.5-21h-27v17h27zM13 9c.414 0 .79.168 1.06.439l.94.94 2.94-2.94A1.5 1.5 0 1 1 20.06 9.56l-4 4a1.496 1.496 0 0 1-2.122 0l-2-2A1.5 1.5 0 0 1 13 9z"/>
</symbol><symbol id="icon-facebook" viewBox="0 0 12 26">
    <path d="M12.09.199v4.12s-3.038-.302-3.799.862c-.416.636-.169 2.5-.206 3.838h4.03c-.341 1.564-.585 2.624-.836 3.978H8.063v12.804H2.48V13.047H.106V9.02h2.349c.12-2.946.165-5.864 1.629-7.35C5.728-.001 7.297.199 12.089.199z"/>
</symbol><symbol id="icon-home" viewBox="0 0 32 31">
    <path d="M32 16.5a1.5 1.5 0 0 1-1.5 1.5 1.49 1.49 0 0 1-1.02-.406l-.003.004L16.038 4.159 16 4.122 2.554 17.568a1.5 1.5 0 1 1-2.092-2.15L14.918.96c.273-.283.656-.46 1.08-.46H16c.027 0 .053 0 .08.002h.012a1.97 1.97 0 0 1 .072.007c.367.04.694.212.933.468L23 6.877V5.5a1.5 1.5 0 1 1 3 0v4.378l5.598 5.598-.004.004c.25.268.406.625.406 1.02zM29 19v10.5a1.5 1.5 0 0 1-1.5 1.5h-3V19h-6v12h-14A1.5 1.5 0 0 1 3 29.5V19L16 6zm-15.5 0h-6v6h6z"/>
</symbol><symbol id="icon-image" viewBox="0 0 32 32">
    <path d="M30.5 32h-29A1.5 1.5 0 0 1 0 30.5v-29A1.5 1.5 0 0 1 1.5 0h29A1.5 1.5 0 0 1 32 1.5v29a1.5 1.5 0 0 1-1.5 1.5zM29 3H3v26h26zM12 4.5a1.5 1.5 0 0 1 0 3H7.5V12a1.5 1.5 0 1 1-3 0V4.5zM4.5 20a1.5 1.5 0 1 1 3 0v4.5H12a1.5 1.5 0 1 1 0 3H4.5zM20 4.5h7.5V12a1.5 1.5 0 1 1-3 0V7.5H20a1.5 1.5 0 1 1 0-3zm0 20h4.5V20a1.5 1.5 0 0 1 3 0v7.5H20a1.5 1.5 0 0 1 0-3z"/>
</symbol><symbol id="icon-instagram" viewBox="0 0 26 26">
    <path d="M22.7 25.8H3.5a3.2 3.2 0 0 1-3.2-3.2V3.4A3.2 3.2 0 0 1 3.5.2h19.2a3.2 3.2 0 0 1 3.2 3.2v19.2a3.2 3.2 0 0 1-3.2 3.2zM13.1 8.04a4.957 4.957 0 0 0-4.498 2.88h-.005l-.022.054a4.93 4.93 0 0 0-.128.321c-.02.053-.04.104-.057.156a4.994 4.994 0 0 0-.095.34c-.014.054-.03.106-.042.16a4.987 4.987 0 0 0-.061.368c-.007.05-.017.099-.023.15a4.96 4.96 0 1 0 9.861 0c-.005-.051-.015-.1-.022-.15a4.982 4.982 0 0 0-.061-.368c-.012-.054-.028-.106-.042-.16a5 5 0 0 0-.095-.34c-.017-.052-.038-.103-.057-.156a4.936 4.936 0 0 0-.128-.32l-.022-.056h-.005A4.957 4.957 0 0 0 13.1 8.04zm9.92-3.68a1.28 1.28 0 0 0-1.28-1.28h-2.56a1.28 1.28 0 0 0-1.28 1.28v2.56c0 .707.573 1.28 1.28 1.28h2.56a1.28 1.28 0 0 0 1.28-1.28zm0 6.56h-2.36a7.84 7.84 0 0 1-7.56 9.92 7.84 7.84 0 0 1-7.56-9.92H3.18v10.72c0 .707.573 1.28 1.28 1.28h17.28a1.28 1.28 0 0 0 1.28-1.28z"/>
</symbol><symbol id="icon-line_graph" viewBox="0 0 32 32">
    <path d="M30.5 32h-29A1.5 1.5 0 0 1 0 30.5v-29A1.5 1.5 0 0 1 1.5 0h29A1.5 1.5 0 0 1 32 1.5v29a1.5 1.5 0 0 1-1.5 1.5zM29 3H3v26h26zM5.215 16.238l4-2.5a1.491 1.491 0 0 1 1.625.036l.006-.008 6.63 4.42 7.639-5.391a1.5 1.5 0 0 1 1.764 2.426l-8.5 6a1.493 1.493 0 0 1-1.74.012l-6.657-4.438-3.135 1.96a1.5 1.5 0 0 1-1.631-2.516z"/>
</symbol><symbol id="icon-loupe" viewBox="0 0 18 18">
    <path d="M17.8 16.15a1.65 1.65 0 0 1-2.817 1.166l-4.836-4.835c-.982.58-2.124.919-3.347.919a6.6 6.6 0 1 1 6.6-6.6 6.558 6.558 0 0 1-.919 3.347l4.836 4.836c.298.298.483.71.483 1.167zm-11-14.3a4.95 4.95 0 1 0 0 9.9 4.95 4.95 0 0 0 0-9.9z"/>
</symbol><symbol id="icon-pinterest" viewBox="0 0 20 26">
    <path d="M8.05 16.854c-.208.833-.419 1.706-.637 2.56-.215.842-.405 1.696-.718 2.47-.519 1.281-1.178 2.52-2.043 3.521-.575.667-.453.4-.626.365-.132-.028-.143-.157-.17-.345-.14-1.018-.044-2.195.008-3.34.06-1.303.334-2.387.589-3.47.484-2.064.946-4.087 1.435-6.164.032-.138.12-.366.09-.445-.222-.577-.366-1.095-.429-1.7a5.41 5.41 0 0 1 .14-1.944c.276-1.058.912-1.995 1.893-2.338.624-.216 1.315-.118 1.735.132.432.259.729.667.867 1.246.148.615.039 1.35-.08 1.891-.267 1.219-.618 2.134-.937 3.31-.158.583-.337 1.182-.19 1.812.137.578.438.976.848 1.275.426.31.93.48 1.625.455 1.228-.043 2.081-.828 2.651-1.568.913-1.185 1.465-2.784 1.675-4.686.068-.614.117-1.319.07-2.014-.088-1.284-.49-2.317-1.127-3.117-.606-.763-1.466-1.37-2.512-1.71-1.037-.34-2.472-.452-3.747-.234-2.318.397-3.952 1.714-4.915 3.533a7.078 7.078 0 0 0-.837 3.41c0 1.05.26 1.865.678 2.5.133.201.328.367.458.597.185.326-.028.811-.12 1.164-.11.425-.12 1.012-.617 1.022-.206.004-.464-.146-.638-.243-1.305-.721-2.097-2.033-2.422-3.734a8.934 8.934 0 0 1 0-3.238c.19-.967.544-1.858.937-2.581a9.238 9.238 0 0 1 3.459-3.563C5.559 1.023 6.818.56 8.35.337A16.42 16.42 0 0 1 9.955.205a9.638 9.638 0 0 1 4.326.81 8.849 8.849 0 0 1 2.98 2.146c.838.915 1.448 1.98 1.834 3.309.202.692.398 1.432.398 2.287 0 .858-.181 1.613-.308 2.368-.474 2.828-1.819 5.141-3.838 6.458a6.635 6.635 0 0 1-1.754.809c-.667.194-1.428.34-2.243.283a4.599 4.599 0 0 1-1.983-.577c-.54-.305-.994-.679-1.316-1.244z"/>
</symbol><symbol id="icon-shopping_cart" viewBox="0 0 18 15">
    <path fill="#fff" d="M17.726 3.663h.001l-2.475 5.5a.824.824 0 0 1-.697.485l-7.128.475.412 1.176H15.6a1.65 1.65 0 1 1-1.65 1.65h-7.7A1.65 1.65 0 1 1 4.6 11.3h1.49L2.916 2.225h-1.89a.825.825 0 0 1 0-1.65H3.5c.36 0 .663.232.776.553h.003l.48 1.372h12.216a.825.825 0 0 1 .751 1.163zm-12.39.487l1.526 4.357 7.089-.473 1.748-3.884z"/>
</symbol><symbol id="icon-twitter" viewBox="0 0 26 22">
    <path d="M17.513.601c2.034-.036 3.117.705 4.15 1.647.879-.075 2.02-.565 2.692-.907l.653-.357c-.384 1.037-.904 1.85-1.704 2.466-.178.136-.354.321-.577.408v.013c1.14-.011 2.08-.526 2.973-.805v.013c-.469.745-1.104 1.502-1.781 2.044l-.82.651c.015 1.207-.018 2.359-.244 3.373-1.311 5.895-4.787 9.897-10.288 11.612-1.976.615-5.168.868-7.432.306-1.122-.278-2.136-.593-3.088-1.008a12.285 12.285 0 0 1-1.486-.768L.1 19.01c.51.015 1.108.156 1.678.063.517-.083 1.023-.061 1.5-.165 1.188-.261 2.243-.606 3.151-1.138.441-.257 1.11-.56 1.423-.932-.59.01-1.125-.127-1.563-.281-1.7-.6-2.688-1.703-3.332-3.36.515.057 1.998.19 2.345-.102-.648-.036-1.271-.411-1.717-.69-1.367-.855-2.481-2.289-2.473-4.496l.538.255c.344.145.693.222 1.102.307.173.036.52.137.718.063h-.026c-.264-.307-.695-.512-.96-.843-.878-1.09-1.7-2.766-1.18-4.764a6.1 6.1 0 0 1 .564-1.367l.026.012c.102.214.33.371.474.55.448.555 1 1.054 1.563 1.494 1.918 1.5 3.645 2.422 6.42 3.104.703.174 1.516.306 2.357.307-.236-.687-.16-1.8.025-2.465.468-1.674 1.483-2.88 2.973-3.525a6.311 6.311 0 0 1 1.166-.359l.64-.076z"/>
</symbol></svg>